{
	"asset":{
		"copyright":"Monstrous Software 2023",
		"generator":"Khronos glTF Blender I/O v3.5.30",
		"version":"2.0"
	},
	"extensionsUsed":[
		"KHR_materials_specular",
		"KHR_materials_ior",
		"KHR_materials_emissive_strength"
	],
	"scene":0,
	"scenes":[
		{
			"name":"Scene",
			"nodes":[
				0,
				1,
				2
			]
		}
	],
	"nodes":[
		{
			"mesh":0,
			"name":"trafficCone",
			"rotation":[
				0,
				1,
				0,
				0
			],
			"scale":[
				-0.3449110686779022,
				-0.02916404977440834,
				-0.3449110686779022
			],
			"translation":[
				0,
				-0.35519373416900635,
				0
			]
		},
		{
			"mesh":1,
			"name":"car",
			"translation":[
				0,
				-0.7825188040733337,
				0
			]
		},
		{
			"mesh":2,
			"name":"wheel",
			"rotation":[
				0,
				0.7071068286895752,
				0,
				0.7071068286895752
			],
			"translation":[
				-1.8681639432907104,
				-0.4115132689476013,
				0.9738572835922241
			]
		}
	],
	"materials":[
		{
			"doubleSided":true,
			"name":"coneOrange.001",
			"pbrMetallicRoughness":{
				"baseColorFactor":[
					0.4575318396091461,
					0.11612508445978165,
					0.016008790582418442,
					1
				],
				"metallicFactor":0,
				"roughnessFactor":0.5
			}
		},
		{
			"doubleSided":true,
			"name":"coneWhite.001",
			"pbrMetallicRoughness":{
				"baseColorFactor":[
					0.34238287806510925,
					0.34238287806510925,
					0.34238287806510925,
					1
				],
				"metallicFactor":0,
				"roughnessFactor":0.5
			}
		},
		{
			"doubleSided":true,
			"extensions":{
				"KHR_materials_specular":{
					"specularColorFactor":[
						1.3918837680090195,
						1.3918837680090195,
						1.3918837680090195
					]
				},
				"KHR_materials_ior":{
					"ior":1.4500000476837158
				}
			},
			"name":"carpaint",
			"pbrMetallicRoughness":{
				"baseColorFactor":[
					0.0007433780119754374,
					0.0029066717252135277,
					0.018005045130848885,
					1
				],
				"metallicFactor":0.97826087474823,
				"roughnessFactor":0.5
			}
		},
		{
			"doubleSided":true,
			"emissiveFactor":[
				1,
				0.01532135158777237,
				0.007394168060272932
			],
			"extensions":{
				"KHR_materials_emissive_strength":{
					"emissiveStrength":10
				}
			},
			"name":"taillight",
			"pbrMetallicRoughness":{
				"baseColorFactor":[
					1,
					0.044396474957466125,
					0.01560280378907919,
					1
				],
				"metallicFactor":0,
				"roughnessFactor":0.5
			}
		},
		{
			"doubleSided":true,
			"extensions":{
				"KHR_materials_specular":{
					"specularColorFactor":[
						1.8816206912252087,
						1.8816206912252087,
						1.8816206912252087
					]
				},
				"KHR_materials_ior":{
					"ior":1.4500000476837158
				}
			},
			"name":"chrome",
			"pbrMetallicRoughness":{
				"baseColorFactor":[
					0.800000011920929,
					0.800000011920929,
					0.800000011920929,
					1
				],
				"roughnessFactor":0.5
			}
		},
		{
			"doubleSided":true,
			"emissiveFactor":[
				1,
				0.4497657461343699,
				0.053359140045758105
			],
			"extensions":{
				"KHR_materials_emissive_strength":{
					"emissiveStrength":13.337352871894836
				}
			},
			"name":"headlight",
			"pbrMetallicRoughness":{
				"baseColorFactor":[
					0.06252993643283844,
					0.35206711292266846,
					0.4200194180011749,
					1
				],
				"metallicFactor":0,
				"roughnessFactor":0.5
			}
		},
		{
			"doubleSided":true,
			"extensions":{
				"KHR_materials_specular":{
					"specularColorFactor":[
						0,
						0,
						0
					]
				},
				"KHR_materials_ior":{
					"ior":1.4500000476837158
				}
			},
			"name":"rubber",
			"pbrMetallicRoughness":{
				"baseColorFactor":[
					0,
					0,
					0,
					1
				],
				"metallicFactor":0,
				"roughnessFactor":0.5
			}
		}
	],
	"meshes":[
		{
			"name":"Cube.009",
			"primitives":[
				{
					"attributes":{
						"POSITION":0,
						"TEXCOORD_0":1,
						"NORMAL":2
					},
					"indices":3,
					"material":0
				},
				{
					"attributes":{
						"POSITION":4,
						"TEXCOORD_0":5,
						"NORMAL":6
					},
					"indices":7,
					"material":1
				}
			]
		},
		{
			"name":"Cube.001",
			"primitives":[
				{
					"attributes":{
						"POSITION":8,
						"TEXCOORD_0":9,
						"NORMAL":10
					},
					"indices":11,
					"material":2
				},
				{
					"attributes":{
						"POSITION":12,
						"TEXCOORD_0":13,
						"NORMAL":14
					},
					"indices":15,
					"material":3
				},
				{
					"attributes":{
						"POSITION":16,
						"TEXCOORD_0":17,
						"NORMAL":18
					},
					"indices":19,
					"material":4
				},
				{
					"attributes":{
						"POSITION":20,
						"TEXCOORD_0":21,
						"NORMAL":22
					},
					"indices":23,
					"material":5
				}
			]
		},
		{
			"name":"Cylinder.001",
			"primitives":[
				{
					"attributes":{
						"POSITION":24,
						"TEXCOORD_0":25,
						"NORMAL":26
					},
					"indices":27,
					"material":4
				},
				{
					"attributes":{
						"POSITION":28,
						"TEXCOORD_0":29,
						"NORMAL":30
					},
					"indices":31,
					"material":6
				}
			]
		}
	],
	"accessors":[
		{
			"bufferView":0,
			"componentType":5126,
			"count":319,
			"max":[
				1,
				1,
				1
			],
			"min":[
				-1,
				-25.179880142211914,
				-1
			],
			"type":"VEC3"
		},
		{
			"bufferView":1,
			"componentType":5126,
			"count":319,
			"type":"VEC2"
		},
		{
			"bufferView":2,
			"componentType":5126,
			"count":319,
			"type":"VEC3"
		},
		{
			"bufferView":3,
			"componentType":5123,
			"count":636,
			"type":"SCALAR"
		},
		{
			"bufferView":4,
			"componentType":5126,
			"count":96,
			"max":[
				0.6458173990249634,
				-1,
				0.6458173990249634
			],
			"min":[
				-0.6458173990249634,
				-18.617929458618164,
				-0.6458173990249634
			],
			"type":"VEC3"
		},
		{
			"bufferView":5,
			"componentType":5126,
			"count":96,
			"type":"VEC2"
		},
		{
			"bufferView":6,
			"componentType":5126,
			"count":96,
			"type":"VEC3"
		},
		{
			"bufferView":7,
			"componentType":5123,
			"count":144,
			"type":"SCALAR"
		},
		{
			"bufferView":8,
			"componentType":5126,
			"count":1398,
			"max":[
				1.245164155960083,
				1.6822222471237183,
				2.653989791870117
			],
			"min":[
				-1.245164155960083,
				0.31860604882240295,
				-3.263197660446167
			],
			"type":"VEC3"
		},
		{
			"bufferView":9,
			"componentType":5126,
			"count":1398,
			"type":"VEC2"
		},
		{
			"bufferView":10,
			"componentType":5126,
			"count":1398,
			"type":"VEC3"
		},
		{
			"bufferView":11,
			"componentType":5123,
			"count":4584,
			"type":"SCALAR"
		},
		{
			"bufferView":12,
			"componentType":5126,
			"count":44,
			"max":[
				1.1882565021514893,
				0.8857575058937073,
				-2.417346715927124
			],
			"min":[
				-1.1882565021514893,
				0.6871013641357422,
				-3.299220323562622
			],
			"type":"VEC3"
		},
		{
			"bufferView":13,
			"componentType":5126,
			"count":44,
			"type":"VEC2"
		},
		{
			"bufferView":14,
			"componentType":5126,
			"count":44,
			"type":"VEC3"
		},
		{
			"bufferView":15,
			"componentType":5123,
			"count":84,
			"type":"SCALAR"
		},
		{
			"bufferView":16,
			"componentType":5126,
			"count":892,
			"max":[
				1.1515746116638184,
				0.9619945287704468,
				2.6897354125976562
			],
			"min":[
				-1.1515746116638184,
				0.6169694066047668,
				-3.3339855670928955
			],
			"type":"VEC3"
		},
		{
			"bufferView":17,
			"componentType":5126,
			"count":892,
			"type":"VEC2"
		},
		{
			"bufferView":18,
			"componentType":5126,
			"count":892,
			"type":"VEC3"
		},
		{
			"bufferView":19,
			"componentType":5123,
			"count":2076,
			"type":"SCALAR"
		},
		{
			"bufferView":20,
			"componentType":5126,
			"count":64,
			"max":[
				1.1298515796661377,
				0.9041506052017212,
				2.6897356510162354
			],
			"min":[
				-1.1298515796661377,
				0.656947910785675,
				2.662048816680908
			],
			"type":"VEC3"
		},
		{
			"bufferView":21,
			"componentType":5126,
			"count":64,
			"type":"VEC2"
		},
		{
			"bufferView":22,
			"componentType":5126,
			"count":64,
			"type":"VEC3"
		},
		{
			"bufferView":23,
			"componentType":5123,
			"count":276,
			"type":"SCALAR"
		},
		{
			"bufferView":24,
			"componentType":5126,
			"count":412,
			"max":[
				1.2163339853286743,
				0.732653021812439,
				2.1652629375457764
			],
			"min":[
				1.0718955993652344,
				0.11727175116539001,
				1.5498815774917603
			],
			"type":"VEC3"
		},
		{
			"bufferView":25,
			"componentType":5126,
			"count":412,
			"type":"VEC2"
		},
		{
			"bufferView":26,
			"componentType":5126,
			"count":412,
			"type":"VEC3"
		},
		{
			"bufferView":27,
			"componentType":5123,
			"count":804,
			"type":"SCALAR"
		},
		{
			"bufferView":28,
			"componentType":5126,
			"count":184,
			"max":[
				1.1764919757843018,
				0.7975450754165649,
				2.2301549911499023
			],
			"min":[
				0.7973834276199341,
				0.05237969756126404,
				1.4849895238876343
			],
			"type":"VEC3"
		},
		{
			"bufferView":29,
			"componentType":5126,
			"count":184,
			"type":"VEC2"
		},
		{
			"bufferView":30,
			"componentType":5126,
			"count":184,
			"type":"VEC3"
		},
		{
			"bufferView":31,
			"componentType":5123,
			"count":360,
			"type":"SCALAR"
		}
	],
	"bufferViews":[
		{
			"buffer":0,
			"byteLength":3828,
			"byteOffset":0,
			"target":34962
		},
		{
			"buffer":0,
			"byteLength":2552,
			"byteOffset":3828,
			"target":34962
		},
		{
			"buffer":0,
			"byteLength":3828,
			"byteOffset":6380,
			"target":34962
		},
		{
			"buffer":0,
			"byteLength":1272,
			"byteOffset":10208,
			"target":34963
		},
		{
			"buffer":0,
			"byteLength":1152,
			"byteOffset":11480,
			"target":34962
		},
		{
			"buffer":0,
			"byteLength":768,
			"byteOffset":12632,
			"target":34962
		},
		{
			"buffer":0,
			"byteLength":1152,
			"byteOffset":13400,
			"target":34962
		},
		{
			"buffer":0,
			"byteLength":288,
			"byteOffset":14552,
			"target":34963
		},
		{
			"buffer":0,
			"byteLength":16776,
			"byteOffset":14840,
			"target":34962
		},
		{
			"buffer":0,
			"byteLength":11184,
			"byteOffset":31616,
			"target":34962
		},
		{
			"buffer":0,
			"byteLength":16776,
			"byteOffset":42800,
			"target":34962
		},
		{
			"buffer":0,
			"byteLength":9168,
			"byteOffset":59576,
			"target":34963
		},
		{
			"buffer":0,
			"byteLength":528,
			"byteOffset":68744,
			"target":34962
		},
		{
			"buffer":0,
			"byteLength":352,
			"byteOffset":69272,
			"target":34962
		},
		{
			"buffer":0,
			"byteLength":528,
			"byteOffset":69624,
			"target":34962
		},
		{
			"buffer":0,
			"byteLength":168,
			"byteOffset":70152,
			"target":34963
		},
		{
			"buffer":0,
			"byteLength":10704,
			"byteOffset":70320,
			"target":34962
		},
		{
			"buffer":0,
			"byteLength":7136,
			"byteOffset":81024,
			"target":34962
		},
		{
			"buffer":0,
			"byteLength":10704,
			"byteOffset":88160,
			"target":34962
		},
		{
			"buffer":0,
			"byteLength":4152,
			"byteOffset":98864,
			"target":34963
		},
		{
			"buffer":0,
			"byteLength":768,
			"byteOffset":103016,
			"target":34962
		},
		{
			"buffer":0,
			"byteLength":512,
			"byteOffset":103784,
			"target":34962
		},
		{
			"buffer":0,
			"byteLength":768,
			"byteOffset":104296,
			"target":34962
		},
		{
			"buffer":0,
			"byteLength":552,
			"byteOffset":105064,
			"target":34963
		},
		{
			"buffer":0,
			"byteLength":4944,
			"byteOffset":105616,
			"target":34962
		},
		{
			"buffer":0,
			"byteLength":3296,
			"byteOffset":110560,
			"target":34962
		},
		{
			"buffer":0,
			"byteLength":4944,
			"byteOffset":113856,
			"target":34962
		},
		{
			"buffer":0,
			"byteLength":1608,
			"byteOffset":118800,
			"target":34963
		},
		{
			"buffer":0,
			"byteLength":2208,
			"byteOffset":120408,
			"target":34962
		},
		{
			"buffer":0,
			"byteLength":1472,
			"byteOffset":122616,
			"target":34962
		},
		{
			"buffer":0,
			"byteLength":2208,
			"byteOffset":124088,
			"target":34962
		},
		{
			"buffer":0,
			"byteLength":720,
			"byteOffset":126296,
			"target":34963
		}
	],
	"buffers":[
		{
			"byteLength":127016,
			"uri":"data:application/octet-stream;base64,"
		}
	]
}
