{
	"asset":{
		"generator":"Khronos glTF Blender I/O v3.5.30",
		"version":"2.0"
	},
	"extensionsUsed":[
		"KHR_materials_specular",
		"KHR_materials_ior",
		"KHR_materials_emissive_strength"
	],
	"scene":0,
	"scenes":[
		{
			"name":"Scene",
			"nodes":[
				0,
				1,
				2,
				3,
				4,
				5,
				6
			]
		}
	],
	"nodes":[
		{
			"mesh":0,
			"name":"Muscle 2",
			"translation":[
				0,
				0.6000000238418579,
				0
			]
		},
		{
			"mesh":1,
			"name":"Muscle 2 wheel rear right",
			"translation":[
				-1.0265388488769531,
				0.40000003576278687,
				-1.6088247299194336
			]
		},
		{
			"mesh":2,
			"name":"Muscle 2 wheel front left",
			"translation":[
				1.0265388488769531,
				0.40000003576278687,
				1.6088237762451172
			]
		},
		{
			"mesh":3,
			"name":"Muscle 2 wheel rear left",
			"translation":[
				1.0265388488769531,
				0.40000003576278687,
				-1.6088247299194336
			]
		},
		{
			"mesh":4,
			"name":"Muscle 2 wheel front right",
			"translation":[
				-1.0265388488769531,
				0.40000003576278687,
				1.6088237762451172
			]
		},
		{
			"mesh":5,
			"name":"road",
			"scale":[
				9.058684349060059,
				4.829085826873779,
				73.8281021118164
			]
		},
		{
			"mesh":6,
			"name":"grassplane",
			"scale":[
				91.66179656982422,
				91.66179656982422,
				91.66179656982422
			],
			"translation":[
				0,
				-0.19928093254566193,
				0
			]
		}
	],
	"materials":[
		{
			"doubleSided":true,
			"extensions":{
				"KHR_materials_specular":{
					"specularColorFactor":[
						0,
						0,
						0
					]
				},
				"KHR_materials_ior":{
					"ior":1.4500000476837158
				}
			},
			"name":"body grey",
			"pbrMetallicRoughness":{
				"baseColorFactor":[
					0.4370654821395874,
					0.526382327079773,
					0.7105436325073242,
					1
				],
				"metallicFactor":0.17616581916809082,
				"roughnessFactor":0.09326422214508057
			}
		},
		{
			"doubleSided":true,
			"extensions":{
				"KHR_materials_specular":{
					"specularColorFactor":[
						0,
						0,
						0
					]
				},
				"KHR_materials_ior":{
					"ior":1.4500000476837158
				}
			},
			"name":"tires.001",
			"pbrMetallicRoughness":{
				"baseColorFactor":[
					0.0009105814970098436,
					0,
					0,
					1
				],
				"metallicFactor":0
			}
		},
		{
			"doubleSided":true,
			"extensions":{
				"KHR_materials_specular":{
					"specularColorFactor":[
						0,
						0,
						0
					]
				},
				"KHR_materials_ior":{
					"ior":1.4500000476837158
				}
			},
			"name":"body dark blue",
			"pbrMetallicRoughness":{
				"baseColorFactor":[
					0,
					0.004391442518681288,
					0.07618540525436401,
					1
				],
				"metallicFactor":0
			}
		},
		{
			"doubleSided":true,
			"emissiveFactor":[
				1,
				1,
				1
			],
			"extensions":{
				"KHR_materials_emissive_strength":{
					"emissiveStrength":11.899999618530273
				},
				"KHR_materials_specular":{
					"specularColorFactor":[
						0,
						0,
						0
					]
				},
				"KHR_materials_ior":{
					"ior":1.4500000476837158
				}
			},
			"name":"headlights.001",
			"pbrMetallicRoughness":{
				"baseColorFactor":[
					0.658375084400177,
					0.623960554599762,
					0.7912982106208801,
					1
				],
				"metallicFactor":0
			}
		},
		{
			"doubleSided":true,
			"emissiveFactor":[
				0.1733497679233551,
				0.013101090677082539,
				0.00845678523182869
			],
			"extensions":{
				"KHR_materials_specular":{
					"specularColorFactor":[
						0,
						0,
						0
					]
				},
				"KHR_materials_ior":{
					"ior":1.4500000476837158
				}
			},
			"name":"rear lights.001",
			"pbrMetallicRoughness":{
				"baseColorFactor":[
					0.32314327359199524,
					0.0018211622955277562,
					0.014443845488131046,
					1
				],
				"metallicFactor":0
			}
		},
		{
			"doubleSided":true,
			"extensions":{
				"KHR_materials_specular":{
					"specularColorFactor":[
						2.0641868694221848,
						2.0641868694221848,
						2.0641868694221848
					]
				},
				"KHR_materials_ior":{
					"ior":1.4500000476837158
				}
			},
			"name":"windows.001",
			"pbrMetallicRoughness":{
				"baseColorFactor":[
					0.09530749171972275,
					0.11697071045637131,
					0.18782080709934235,
					1
				],
				"metallicFactor":0,
				"roughnessFactor":0.38860106468200684
			}
		},
		{
			"doubleSided":true,
			"extensions":{
				"KHR_materials_specular":{
					"specularColorFactor":[
						0,
						0,
						0
					]
				},
				"KHR_materials_ior":{
					"ior":1.4500000476837158
				}
			},
			"name":"body white.001",
			"pbrMetallicRoughness":{
				"baseColorFactor":[
					1,
					0.9473066926002502,
					1,
					1
				],
				"metallicFactor":0.6373056769371033
			}
		},
		{
			"doubleSided":true,
			"extensions":{
				"KHR_materials_specular":{
					"specularColorFactor":[
						0,
						0,
						0
					]
				},
				"KHR_materials_ior":{
					"ior":1.4500000476837158
				}
			},
			"name":"wheels.001",
			"pbrMetallicRoughness":{
				"baseColorFactor":[
					0.658375084400177,
					0.623960554599762,
					0.7912982106208801,
					1
				],
				"metallicFactor":0.6580311059951782,
				"roughnessFactor":0.1243523359298706
			}
		},
		{
			"doubleSided":true,
			"extensions":{
				"KHR_materials_specular":{
					"specularColorFactor":[
						0,
						0,
						0
					]
				},
				"KHR_materials_ior":{
					"ior":1.4500000476837158
				}
			},
			"name":"Material.001",
			"pbrMetallicRoughness":{
				"baseColorFactor":[
					0.14730937778949738,
					0.14730937778949738,
					0.14730937778949738,
					1
				],
				"metallicFactor":0,
				"roughnessFactor":0
			}
		},
		{
			"doubleSided":true,
			"extensions":{
				"KHR_materials_specular":{
					"specularColorFactor":[
						0,
						0,
						0
					]
				},
				"KHR_materials_ior":{
					"ior":1.4500000476837158
				}
			},
			"name":"Material.002",
			"pbrMetallicRoughness":{
				"baseColorFactor":[
					0.012346000410616398,
					0.3263680636882782,
					0.03812611475586891,
					1
				],
				"metallicFactor":0
			}
		}
	],
	"meshes":[
		{
			"name":"Cube.001",
			"primitives":[
				{
					"attributes":{
						"POSITION":0,
						"TEXCOORD_0":1,
						"NORMAL":2
					},
					"indices":3,
					"material":0
				},
				{
					"attributes":{
						"POSITION":4,
						"TEXCOORD_0":5,
						"NORMAL":6
					},
					"indices":7,
					"material":1
				},
				{
					"attributes":{
						"POSITION":8,
						"TEXCOORD_0":9,
						"NORMAL":10
					},
					"indices":11,
					"material":2
				},
				{
					"attributes":{
						"POSITION":12,
						"TEXCOORD_0":13,
						"NORMAL":14
					},
					"indices":15,
					"material":3
				},
				{
					"attributes":{
						"POSITION":16,
						"TEXCOORD_0":17,
						"NORMAL":18
					},
					"indices":19,
					"material":4
				},
				{
					"attributes":{
						"POSITION":20,
						"TEXCOORD_0":21,
						"NORMAL":22
					},
					"indices":23,
					"material":5
				},
				{
					"attributes":{
						"POSITION":24,
						"TEXCOORD_0":25,
						"NORMAL":26
					},
					"indices":27,
					"material":6
				}
			]
		},
		{
			"name":"Cube.063",
			"primitives":[
				{
					"attributes":{
						"POSITION":28,
						"TEXCOORD_0":29,
						"NORMAL":30
					},
					"indices":31,
					"material":1
				},
				{
					"attributes":{
						"POSITION":32,
						"TEXCOORD_0":33,
						"NORMAL":34
					},
					"indices":35,
					"material":7
				}
			]
		},
		{
			"name":"Cube.064",
			"primitives":[
				{
					"attributes":{
						"POSITION":36,
						"TEXCOORD_0":37,
						"NORMAL":38
					},
					"indices":39,
					"material":1
				},
				{
					"attributes":{
						"POSITION":40,
						"TEXCOORD_0":41,
						"NORMAL":42
					},
					"indices":43,
					"material":7
				}
			]
		},
		{
			"name":"Cube.065",
			"primitives":[
				{
					"attributes":{
						"POSITION":44,
						"TEXCOORD_0":45,
						"NORMAL":46
					},
					"indices":47,
					"material":1
				},
				{
					"attributes":{
						"POSITION":48,
						"TEXCOORD_0":49,
						"NORMAL":50
					},
					"indices":51,
					"material":7
				}
			]
		},
		{
			"name":"Cube.066",
			"primitives":[
				{
					"attributes":{
						"POSITION":52,
						"TEXCOORD_0":53,
						"NORMAL":54
					},
					"indices":55,
					"material":1
				},
				{
					"attributes":{
						"POSITION":56,
						"TEXCOORD_0":57,
						"NORMAL":58
					},
					"indices":59,
					"material":7
				}
			]
		},
		{
			"name":"Plane",
			"primitives":[
				{
					"attributes":{
						"POSITION":60,
						"TEXCOORD_0":61,
						"NORMAL":62
					},
					"indices":63,
					"material":8
				}
			]
		},
		{
			"name":"Plane.001",
			"primitives":[
				{
					"attributes":{
						"POSITION":64,
						"TEXCOORD_0":65,
						"NORMAL":66
					},
					"indices":63,
					"material":9
				}
			]
		}
	],
	"accessors":[
		{
			"bufferView":0,
			"componentType":5126,
			"count":1095,
			"max":[
				1.4069180488586426,
				1.2999999523162842,
				3.0207831859588623
			],
			"min":[
				-1.4069180488586426,
				-0.29999998211860657,
				-2.948395252227783
			],
			"type":"VEC3"
		},
		{
			"bufferView":1,
			"componentType":5126,
			"count":1095,
			"type":"VEC2"
		},
		{
			"bufferView":2,
			"componentType":5126,
			"count":1095,
			"type":"VEC3"
		},
		{
			"bufferView":3,
			"componentType":5123,
			"count":2046,
			"type":"SCALAR"
		},
		{
			"bufferView":4,
			"componentType":5126,
			"count":257,
			"max":[
				1.0692824125289917,
				0.679008424282074,
				2.9456419944763184
			],
			"min":[
				-1.0692824125289917,
				-0.11752878874540329,
				-2.9866480827331543
			],
			"type":"VEC3"
		},
		{
			"bufferView":5,
			"componentType":5126,
			"count":257,
			"type":"VEC2"
		},
		{
			"bufferView":6,
			"componentType":5126,
			"count":257,
			"type":"VEC3"
		},
		{
			"bufferView":7,
			"componentType":5123,
			"count":504,
			"type":"SCALAR"
		},
		{
			"bufferView":8,
			"componentType":5126,
			"count":218,
			"max":[
				0.45000001788139343,
				1.2999999523162842,
				3.0207831859588623
			],
			"min":[
				-0.45000001788139343,
				-0.19999998807907104,
				-2.920783281326294
			],
			"type":"VEC3"
		},
		{
			"bufferView":9,
			"componentType":5126,
			"count":218,
			"type":"VEC2"
		},
		{
			"bufferView":10,
			"componentType":5126,
			"count":218,
			"type":"VEC3"
		},
		{
			"bufferView":11,
			"componentType":5123,
			"count":366,
			"type":"SCALAR"
		},
		{
			"bufferView":12,
			"componentType":5126,
			"count":264,
			"max":[
				1.0344434976577759,
				0.41489487886428833,
				3.0416135787963867
			],
			"min":[
				-1.0344434976577759,
				0.20371507108211517,
				2.9305896759033203
			],
			"type":"VEC3"
		},
		{
			"bufferView":13,
			"componentType":5126,
			"count":264,
			"type":"VEC2"
		},
		{
			"bufferView":14,
			"componentType":5126,
			"count":264,
			"type":"VEC3"
		},
		{
			"bufferView":15,
			"componentType":5123,
			"count":360,
			"type":"SCALAR"
		},
		{
			"bufferView":16,
			"componentType":5126,
			"count":396,
			"max":[
				0.7344433665275574,
				0.6148948669433594,
				-2.9025142192840576
			],
			"min":[
				-0.7344433665275574,
				0.4037150740623474,
				-3.013538122177124
			],
			"type":"VEC3"
		},
		{
			"bufferView":17,
			"componentType":5126,
			"count":396,
			"type":"VEC2"
		},
		{
			"bufferView":18,
			"componentType":5126,
			"count":396,
			"type":"VEC3"
		},
		{
			"bufferView":19,
			"componentType":5123,
			"count":540,
			"type":"SCALAR"
		},
		{
			"bufferView":20,
			"componentType":5126,
			"count":64,
			"max":[
				1.3783191442489624,
				1.240339756011963,
				1.1257504224777222
			],
			"min":[
				-1.3783191442489624,
				0.6147453784942627,
				-1.971184253692627
			],
			"type":"VEC3"
		},
		{
			"bufferView":21,
			"componentType":5126,
			"count":64,
			"type":"VEC2"
		},
		{
			"bufferView":22,
			"componentType":5126,
			"count":64,
			"type":"VEC3"
		},
		{
			"bufferView":23,
			"componentType":5123,
			"count":120,
			"type":"SCALAR"
		},
		{
			"bufferView":24,
			"componentType":5126,
			"count":20,
			"max":[
				0.30986887216567993,
				0.07336843758821487,
				2.8455588817596436
			],
			"min":[
				-0.30986887216567993,
				-0.12465823441743851,
				-2.948395252227783
			],
			"type":"VEC3"
		},
		{
			"bufferView":25,
			"componentType":5126,
			"count":20,
			"type":"VEC2"
		},
		{
			"bufferView":26,
			"componentType":5126,
			"count":20,
			"type":"VEC3"
		},
		{
			"bufferView":27,
			"componentType":5123,
			"count":48,
			"type":"SCALAR"
		},
		{
			"bufferView":28,
			"componentType":5126,
			"count":80,
			"max":[
				0.21237581968307495,
				0.41058605909347534,
				0.3904910087585449
			],
			"min":[
				-0.10630273818969727,
				-0.41058605909347534,
				-0.3904900550842285
			],
			"type":"VEC3"
		},
		{
			"bufferView":29,
			"componentType":5126,
			"count":80,
			"type":"VEC2"
		},
		{
			"bufferView":30,
			"componentType":5126,
			"count":80,
			"type":"VEC3"
		},
		{
			"bufferView":31,
			"componentType":5123,
			"count":180,
			"type":"SCALAR"
		},
		{
			"bufferView":32,
			"componentType":5126,
			"count":151,
			"max":[
				0.21237581968307495,
				0.3226010799407959,
				0.3068122863769531
			],
			"min":[
				-0.10630273818969727,
				-0.3226010799407959,
				-0.3068113327026367
			],
			"type":"VEC3"
		},
		{
			"bufferView":33,
			"componentType":5126,
			"count":151,
			"type":"VEC2"
		},
		{
			"bufferView":34,
			"componentType":5126,
			"count":151,
			"type":"VEC3"
		},
		{
			"bufferView":35,
			"componentType":5123,
			"count":279,
			"type":"SCALAR"
		},
		{
			"bufferView":36,
			"componentType":5126,
			"count":80,
			"max":[
				0.10630273818969727,
				0.41058605909347534,
				0.39048993587493896
			],
			"min":[
				-0.21237581968307495,
				-0.41058605909347534,
				-0.39049088954925537
			],
			"type":"VEC3"
		},
		{
			"bufferView":37,
			"componentType":5126,
			"count":80,
			"type":"VEC2"
		},
		{
			"bufferView":38,
			"componentType":5126,
			"count":80,
			"type":"VEC3"
		},
		{
			"bufferView":39,
			"componentType":5123,
			"count":180,
			"type":"SCALAR"
		},
		{
			"bufferView":40,
			"componentType":5126,
			"count":151,
			"max":[
				0.10630273818969727,
				0.3226010799407959,
				0.30681121349334717
			],
			"min":[
				-0.21237581968307495,
				-0.3226010799407959,
				-0.3068121671676636
			],
			"type":"VEC3"
		},
		{
			"bufferView":41,
			"componentType":5126,
			"count":151,
			"type":"VEC2"
		},
		{
			"bufferView":42,
			"componentType":5126,
			"count":151,
			"type":"VEC3"
		},
		{
			"bufferView":43,
			"componentType":5123,
			"count":279,
			"type":"SCALAR"
		},
		{
			"bufferView":44,
			"componentType":5126,
			"count":80,
			"max":[
				0.10630273818969727,
				0.41058605909347534,
				0.3904910087585449
			],
			"min":[
				-0.21237581968307495,
				-0.41058605909347534,
				-0.3904900550842285
			],
			"type":"VEC3"
		},
		{
			"bufferView":45,
			"componentType":5126,
			"count":80,
			"type":"VEC2"
		},
		{
			"bufferView":46,
			"componentType":5126,
			"count":80,
			"type":"VEC3"
		},
		{
			"bufferView":47,
			"componentType":5123,
			"count":180,
			"type":"SCALAR"
		},
		{
			"bufferView":48,
			"componentType":5126,
			"count":151,
			"max":[
				0.10630273818969727,
				0.3226010799407959,
				0.3068122863769531
			],
			"min":[
				-0.21237581968307495,
				-0.3226010799407959,
				-0.3068113327026367
			],
			"type":"VEC3"
		},
		{
			"bufferView":49,
			"componentType":5126,
			"count":151,
			"type":"VEC2"
		},
		{
			"bufferView":50,
			"componentType":5126,
			"count":151,
			"type":"VEC3"
		},
		{
			"bufferView":51,
			"componentType":5123,
			"count":279,
			"type":"SCALAR"
		},
		{
			"bufferView":52,
			"componentType":5126,
			"count":80,
			"max":[
				0.21237581968307495,
				0.41058605909347534,
				0.39048993587493896
			],
			"min":[
				-0.10630273818969727,
				-0.41058605909347534,
				-0.39049088954925537
			],
			"type":"VEC3"
		},
		{
			"bufferView":53,
			"componentType":5126,
			"count":80,
			"type":"VEC2"
		},
		{
			"bufferView":54,
			"componentType":5126,
			"count":80,
			"type":"VEC3"
		},
		{
			"bufferView":55,
			"componentType":5123,
			"count":180,
			"type":"SCALAR"
		},
		{
			"bufferView":56,
			"componentType":5126,
			"count":151,
			"max":[
				0.21237581968307495,
				0.3226010799407959,
				0.30681121349334717
			],
			"min":[
				-0.10630273818969727,
				-0.3226010799407959,
				-0.3068121671676636
			],
			"type":"VEC3"
		},
		{
			"bufferView":57,
			"componentType":5126,
			"count":151,
			"type":"VEC2"
		},
		{
			"bufferView":58,
			"componentType":5126,
			"count":151,
			"type":"VEC3"
		},
		{
			"bufferView":59,
			"componentType":5123,
			"count":279,
			"type":"SCALAR"
		},
		{
			"bufferView":60,
			"componentType":5126,
			"count":4,
			"max":[
				1,
				0,
				1
			],
			"min":[
				-1,
				0,
				-1
			],
			"type":"VEC3"
		},
		{
			"bufferView":61,
			"componentType":5126,
			"count":4,
			"type":"VEC2"
		},
		{
			"bufferView":62,
			"componentType":5126,
			"count":4,
			"type":"VEC3"
		},
		{
			"bufferView":63,
			"componentType":5123,
			"count":6,
			"type":"SCALAR"
		},
		{
			"bufferView":64,
			"componentType":5126,
			"count":4,
			"max":[
				1,
				0,
				1
			],
			"min":[
				-1,
				0,
				-1
			],
			"type":"VEC3"
		},
		{
			"bufferView":65,
			"componentType":5126,
			"count":4,
			"type":"VEC2"
		},
		{
			"bufferView":66,
			"componentType":5126,
			"count":4,
			"type":"VEC3"
		}
	],
	"bufferViews":[
		{
			"buffer":0,
			"byteLength":13140,
			"byteOffset":0,
			"target":34962
		},
		{
			"buffer":0,
			"byteLength":8760,
			"byteOffset":13140,
			"target":34962
		},
		{
			"buffer":0,
			"byteLength":13140,
			"byteOffset":21900,
			"target":34962
		},
		{
			"buffer":0,
			"byteLength":4092,
			"byteOffset":35040,
			"target":34963
		},
		{
			"buffer":0,
			"byteLength":3084,
			"byteOffset":39132,
			"target":34962
		},
		{
			"buffer":0,
			"byteLength":2056,
			"byteOffset":42216,
			"target":34962
		},
		{
			"buffer":0,
			"byteLength":3084,
			"byteOffset":44272,
			"target":34962
		},
		{
			"buffer":0,
			"byteLength":1008,
			"byteOffset":47356,
			"target":34963
		},
		{
			"buffer":0,
			"byteLength":2616,
			"byteOffset":48364,
			"target":34962
		},
		{
			"buffer":0,
			"byteLength":1744,
			"byteOffset":50980,
			"target":34962
		},
		{
			"buffer":0,
			"byteLength":2616,
			"byteOffset":52724,
			"target":34962
		},
		{
			"buffer":0,
			"byteLength":732,
			"byteOffset":55340,
			"target":34963
		},
		{
			"buffer":0,
			"byteLength":3168,
			"byteOffset":56072,
			"target":34962
		},
		{
			"buffer":0,
			"byteLength":2112,
			"byteOffset":59240,
			"target":34962
		},
		{
			"buffer":0,
			"byteLength":3168,
			"byteOffset":61352,
			"target":34962
		},
		{
			"buffer":0,
			"byteLength":720,
			"byteOffset":64520,
			"target":34963
		},
		{
			"buffer":0,
			"byteLength":4752,
			"byteOffset":65240,
			"target":34962
		},
		{
			"buffer":0,
			"byteLength":3168,
			"byteOffset":69992,
			"target":34962
		},
		{
			"buffer":0,
			"byteLength":4752,
			"byteOffset":73160,
			"target":34962
		},
		{
			"buffer":0,
			"byteLength":1080,
			"byteOffset":77912,
			"target":34963
		},
		{
			"buffer":0,
			"byteLength":768,
			"byteOffset":78992,
			"target":34962
		},
		{
			"buffer":0,
			"byteLength":512,
			"byteOffset":79760,
			"target":34962
		},
		{
			"buffer":0,
			"byteLength":768,
			"byteOffset":80272,
			"target":34962
		},
		{
			"buffer":0,
			"byteLength":240,
			"byteOffset":81040,
			"target":34963
		},
		{
			"buffer":0,
			"byteLength":240,
			"byteOffset":81280,
			"target":34962
		},
		{
			"buffer":0,
			"byteLength":160,
			"byteOffset":81520,
			"target":34962
		},
		{
			"buffer":0,
			"byteLength":240,
			"byteOffset":81680,
			"target":34962
		},
		{
			"buffer":0,
			"byteLength":96,
			"byteOffset":81920,
			"target":34963
		},
		{
			"buffer":0,
			"byteLength":960,
			"byteOffset":82016,
			"target":34962
		},
		{
			"buffer":0,
			"byteLength":640,
			"byteOffset":82976,
			"target":34962
		},
		{
			"buffer":0,
			"byteLength":960,
			"byteOffset":83616,
			"target":34962
		},
		{
			"buffer":0,
			"byteLength":360,
			"byteOffset":84576,
			"target":34963
		},
		{
			"buffer":0,
			"byteLength":1812,
			"byteOffset":84936,
			"target":34962
		},
		{
			"buffer":0,
			"byteLength":1208,
			"byteOffset":86748,
			"target":34962
		},
		{
			"buffer":0,
			"byteLength":1812,
			"byteOffset":87956,
			"target":34962
		},
		{
			"buffer":0,
			"byteLength":558,
			"byteOffset":89768,
			"target":34963
		},
		{
			"buffer":0,
			"byteLength":960,
			"byteOffset":90328,
			"target":34962
		},
		{
			"buffer":0,
			"byteLength":640,
			"byteOffset":91288,
			"target":34962
		},
		{
			"buffer":0,
			"byteLength":960,
			"byteOffset":91928,
			"target":34962
		},
		{
			"buffer":0,
			"byteLength":360,
			"byteOffset":92888,
			"target":34963
		},
		{
			"buffer":0,
			"byteLength":1812,
			"byteOffset":93248,
			"target":34962
		},
		{
			"buffer":0,
			"byteLength":1208,
			"byteOffset":95060,
			"target":34962
		},
		{
			"buffer":0,
			"byteLength":1812,
			"byteOffset":96268,
			"target":34962
		},
		{
			"buffer":0,
			"byteLength":558,
			"byteOffset":98080,
			"target":34963
		},
		{
			"buffer":0,
			"byteLength":960,
			"byteOffset":98640,
			"target":34962
		},
		{
			"buffer":0,
			"byteLength":640,
			"byteOffset":99600,
			"target":34962
		},
		{
			"buffer":0,
			"byteLength":960,
			"byteOffset":100240,
			"target":34962
		},
		{
			"buffer":0,
			"byteLength":360,
			"byteOffset":101200,
			"target":34963
		},
		{
			"buffer":0,
			"byteLength":1812,
			"byteOffset":101560,
			"target":34962
		},
		{
			"buffer":0,
			"byteLength":1208,
			"byteOffset":103372,
			"target":34962
		},
		{
			"buffer":0,
			"byteLength":1812,
			"byteOffset":104580,
			"target":34962
		},
		{
			"buffer":0,
			"byteLength":558,
			"byteOffset":106392,
			"target":34963
		},
		{
			"buffer":0,
			"byteLength":960,
			"byteOffset":106952,
			"target":34962
		},
		{
			"buffer":0,
			"byteLength":640,
			"byteOffset":107912,
			"target":34962
		},
		{
			"buffer":0,
			"byteLength":960,
			"byteOffset":108552,
			"target":34962
		},
		{
			"buffer":0,
			"byteLength":360,
			"byteOffset":109512,
			"target":34963
		},
		{
			"buffer":0,
			"byteLength":1812,
			"byteOffset":109872,
			"target":34962
		},
		{
			"buffer":0,
			"byteLength":1208,
			"byteOffset":111684,
			"target":34962
		},
		{
			"buffer":0,
			"byteLength":1812,
			"byteOffset":112892,
			"target":34962
		},
		{
			"buffer":0,
			"byteLength":558,
			"byteOffset":114704,
			"target":34963
		},
		{
			"buffer":0,
			"byteLength":48,
			"byteOffset":115264,
			"target":34962
		},
		{
			"buffer":0,
			"byteLength":32,
			"byteOffset":115312,
			"target":34962
		},
		{
			"buffer":0,
			"byteLength":48,
			"byteOffset":115344,
			"target":34962
		},
		{
			"buffer":0,
			"byteLength":12,
			"byteOffset":115392,
			"target":34963
		},
		{
			"buffer":0,
			"byteLength":48,
			"byteOffset":115404,
			"target":34962
		},
		{
			"buffer":0,
			"byteLength":32,
			"byteOffset":115452,
			"target":34962
		},
		{
			"buffer":0,
			"byteLength":48,
			"byteOffset":115484,
			"target":34962
		}
	],
	"buffers":[
		{
			"byteLength":115532,
			"uri":"data:application/octet-stream;base64,"
		}
	]
}
